<?xml version="1.0" encoding="utf-8"?>
<!-- Generator: Adobe Illustrator 21.1.0, SVG Export Plug-In . SVG Version: 6.00 Build 0)  -->
<svg version="1.1" id="Layer_1" xmlns="http://www.w3.org/2000/svg" xmlns:xlink="http://www.w3.org/1999/xlink" x="0px" y="0px"
	 viewBox="0 0 90 90" style="enable-background:new 0 0 90 90;" xml:space="preserve">
<style type="text/css">
	.st0{fill:#D7D7D7;}
</style>
<path class="st0" d="M71.8,25.7C71.1,25,70,24.8,69,25.2c-0.9,0.4-1.5,1.3-1.5,2.3V35H55V22.5h7.5c1,0,1.9-0.6,2.3-1.5
	c0.4-0.9,0.2-2-0.5-2.7L46.8,0.7c-1-1-2.6-1-3.5,0L25.7,18.2C25,18.9,24.8,20,25.2,21c0.4,0.9,1.3,1.5,2.3,1.5H35V35H22.5v-7.5
	c0-1-0.6-1.9-1.5-2.3c-0.9-0.4-2-0.2-2.7,0.5L0.7,43.2c-1,1-1,2.6,0,3.5l17.5,17.5c0.7,0.7,1.8,0.9,2.7,0.5c0.9-0.4,1.5-1.3,1.5-2.3
	V55H35v12.5h-7.5c-1,0-1.9,0.6-2.3,1.5c-0.4,0.9-0.2,2,0.5,2.7l17.5,17.5c0.5,0.5,1.1,0.7,1.8,0.7s1.3-0.2,1.8-0.7l17.5-17.5
	c0.7-0.7,0.9-1.8,0.5-2.7c-0.4-0.9-1.3-1.5-2.3-1.5H55V55h12.5v7.5c0,1,0.6,1.9,1.5,2.3c0.9,0.4,2,0.2,2.7-0.5l17.5-17.5
	c1-1,1-2.6,0-3.5L71.8,25.7z"/>
<path class="st0" d="M72.5,56.5v-4c0-1.4-1.1-2.5-2.5-2.5H52.5c-1.4,0-2.5,1.1-2.5,2.5V70c0,1.4,1.1,2.5,2.5,2.5h4L45,84L33.5,72.5
	h4c1.4,0,2.5-1.1,2.5-2.5V52.5c0-1.4-1.1-2.5-2.5-2.5H20c-1.4,0-2.5,1.1-2.5,2.5v4L6,45l11.5-11.5v4c0,1.4,1.1,2.5,2.5,2.5h17.5
	c1.4,0,2.5-1.1,2.5-2.5V20c0-1.4-1.1-2.5-2.5-2.5h-4L45,6l11.5,11.5h-4c-1.4,0-2.5,1.1-2.5,2.5v17.5c0,1.4,1.1,2.5,2.5,2.5H70
	c1.4,0,2.5-1.1,2.5-2.5v-4L84,45L72.5,56.5z"/>
</svg>
